<?xml version="1.0" encoding="UTF-8" standalone="no"?>
<!DOCTYPE svg PUBLIC "-//W3C//DTD SVG 1.1//EN" "http://www.w3.org/Graphics/SVG/1.1/DTD/svg11.dtd">
<svg width="100%" height="100%" viewBox="0 0 2050 284" version="1.1" xmlns="http://www.w3.org/2000/svg" xmlns:xlink="http://www.w3.org/1999/xlink" xml:space="preserve" xmlns:serif="http://www.serif.com/" style="fill-rule:evenodd;clip-rule:evenodd;stroke-linejoin:round;stroke-miterlimit:2;">
    <g>
        <path d="M197.75,196.87L141.7,252.92L30.48,141.7L68.75,103.43L48.14,82.82L7.57,123.39C-2.53,133.49 -2.53,149.91 7.57,160.01L123.39,275.83C128.44,280.88 135.07,283.4 141.7,283.4C148.33,283.4 154.96,280.87 160.01,275.83L218.36,217.48L197.75,196.87Z" style="fill:rgb(216,68,69);fill-rule:nonzero;"/>
        <g>
            <path d="M203.1,50.66L160.01,7.57C149.92,-2.52 133.49,-2.52 123.39,7.57L65.79,65.17L86.4,85.78L141.71,30.47L182.5,71.27L203.11,50.66L203.1,50.66Z" style="fill:rgb(41,157,91);fill-rule:nonzero;"/>
            <path d="M252.25,99.82L231.64,120.43L252.91,141.7L215.38,179.22L235.99,199.83L275.81,160.01C280.7,155.12 283.39,148.62 283.39,141.7C283.39,134.78 280.7,128.28 275.81,123.39L252.24,99.82L252.25,99.82Z" style="fill:rgb(41,157,91);fill-rule:nonzero;"/>
        </g>
    </g>
    <path d="M141.7,175.91C137.97,175.91 134.24,174.49 131.4,171.64L92.12,132.36L112.73,111.75L141.71,140.73L241.68,40.76L262.29,61.37L152.01,171.65C149.16,174.5 145.44,175.92 141.71,175.92L141.7,175.91Z" style="fill:rgb(41,38,41);fill-rule:nonzero;"/>
    <g transform="matrix(1,0,0,1,-714.574,0.318)">
        <path d="M1102.442,241.84L1064.894,241.84L1136.414,54.994L1173.366,54.994L1243.694,241.84L1206.146,241.84L1192.736,203.696L1115.554,203.696L1102.442,241.84ZM1153.996,89.264C1151.811,96.813 1149.377,104.76 1146.695,113.104C1144.013,121.448 1141.48,129.196 1139.096,136.348L1125.984,174.194L1182.306,174.194L1169.194,136.348C1167.009,129.991 1164.525,122.59 1161.744,114.147C1158.963,105.704 1156.38,97.409 1153.996,89.264Z" style="fill:rgb(41,38,41);fill-rule:nonzero;"/>
        <path d="M1295.844,241.84L1261.276,241.84L1261.276,94.628L1291.076,94.628L1292.566,109.528L1293.46,109.528C1300.413,103.369 1307.913,98.85 1315.959,95.969C1324.005,93.088 1333.491,91.648 1344.418,91.648C1360.709,91.648 1373.125,95.721 1381.668,103.866C1390.211,112.011 1394.482,124.031 1394.482,139.924L1394.482,241.84L1359.914,241.84L1359.914,144.394C1359.914,137.242 1357.58,131.828 1352.911,128.153C1348.242,124.478 1341.339,122.64 1332.2,122.64C1325.644,122.64 1319.287,123.484 1313.128,125.173C1306.969,126.862 1301.208,129.395 1295.844,132.772L1295.844,241.84Z" style="fill:rgb(41,38,41);fill-rule:nonzero;"/>
        <path d="M1520.536,43.67L1555.104,43.67L1555.104,241.84L1524.708,241.84L1522.622,228.132L1521.132,228.132C1515.569,233.695 1508.964,237.817 1501.315,240.499C1493.666,243.181 1484.875,244.522 1474.942,244.522C1455.274,244.522 1441.218,238.562 1432.775,226.642C1424.332,214.722 1420.11,195.153 1420.11,167.936C1420.11,141.116 1425.325,121.696 1435.755,109.677C1446.185,97.658 1463.419,91.648 1487.458,91.648C1493.815,91.648 1499.825,92.095 1505.487,92.989C1511.149,93.883 1516.165,95.125 1520.536,96.714L1520.536,43.67ZM1492.226,122.64C1476.929,122.64 1466.846,125.719 1461.979,131.878C1457.112,138.037 1454.678,150.056 1454.678,167.936C1454.678,185.22 1456.814,196.941 1461.085,203.1C1465.356,209.259 1474.147,212.338 1487.458,212.338C1493.815,212.338 1499.775,211.692 1505.338,210.401C1510.901,209.11 1515.967,207.173 1520.536,204.59L1520.536,127.706C1516.364,125.918 1511.993,124.627 1507.424,123.832C1502.855,123.037 1497.789,122.64 1492.226,122.64Z" style="fill:rgb(41,38,41);fill-rule:nonzero;"/>
        <path d="M1622.154,241.84L1587.586,241.84L1587.586,94.628L1619.472,94.628L1620.962,106.548L1621.856,106.548C1629.207,102.177 1636.657,98.8 1644.206,96.416C1651.755,94.032 1659.106,92.84 1666.258,92.84L1670.281,92.84C1670.976,92.84 1671.523,92.939 1671.92,93.138L1671.92,126.514C1670.728,126.117 1669.188,125.868 1667.301,125.769C1665.414,125.67 1662.185,125.62 1657.616,125.62C1650.663,125.62 1644.206,126.216 1638.246,127.408C1632.286,128.6 1626.922,130.289 1622.154,132.474L1622.154,241.84Z" style="fill:rgb(41,38,41);fill-rule:nonzero;"/>
        <path d="M1824.496,167.936C1824.496,195.749 1819.182,215.467 1808.553,227.089C1797.924,238.711 1779.796,244.522 1754.168,244.522C1728.143,244.522 1709.865,238.81 1699.336,227.387C1688.807,215.964 1683.542,196.147 1683.542,167.936C1683.542,140.321 1688.906,120.703 1699.634,109.081C1710.362,97.459 1728.54,91.648 1754.168,91.648C1779.995,91.648 1798.173,97.36 1808.702,108.783C1819.231,120.206 1824.496,139.924 1824.496,167.936ZM1718.11,167.638C1718.11,185.915 1720.395,197.935 1724.964,203.696C1729.533,209.457 1739.268,212.338 1754.168,212.338C1768.671,212.338 1778.256,209.408 1782.925,203.547C1787.594,197.686 1789.928,185.717 1789.928,167.638C1789.928,149.162 1787.693,137.043 1783.223,131.282C1778.753,125.521 1769.068,122.64 1754.168,122.64C1739.467,122.64 1729.782,125.62 1725.113,131.58C1720.444,137.54 1718.11,149.559 1718.11,167.638Z" style="fill:rgb(41,38,41);fill-rule:nonzero;"/>
        <path d="M1886.48,73.768L1849.826,73.768L1849.826,43.67L1886.48,43.67L1886.48,73.768ZM1885.586,241.84L1851.018,241.84L1851.018,94.628L1885.586,94.628L1885.586,241.84Z" style="fill:rgb(41,38,41);fill-rule:nonzero;"/>
        <path d="M2012.236,43.67L2046.804,43.67L2046.804,241.84L2016.408,241.84L2014.322,228.132L2012.832,228.132C2007.269,233.695 2000.664,237.817 1993.015,240.499C1985.366,243.181 1976.575,244.522 1966.642,244.522C1946.974,244.522 1932.918,238.562 1924.475,226.642C1916.032,214.722 1911.81,195.153 1911.81,167.936C1911.81,141.116 1917.025,121.696 1927.455,109.677C1937.885,97.658 1955.119,91.648 1979.158,91.648C1985.515,91.648 1991.525,92.095 1997.187,92.989C2002.849,93.883 2007.865,95.125 2012.236,96.714L2012.236,43.67ZM1983.926,122.64C1968.629,122.64 1958.546,125.719 1953.679,131.878C1948.812,138.037 1946.378,150.056 1946.378,167.936C1946.378,185.22 1948.514,196.941 1952.785,203.1C1957.056,209.259 1965.847,212.338 1979.158,212.338C1985.515,212.338 1991.475,211.692 1997.038,210.401C2002.601,209.11 2007.667,207.173 2012.236,204.59L2012.236,127.706C2008.064,125.918 2003.693,124.627 1999.124,123.832C1994.555,123.037 1989.489,122.64 1983.926,122.64Z" style="fill:rgb(41,38,41);fill-rule:nonzero;"/>
        <path d="M2179.116,170.618L2179.116,54.994L2214.876,54.994L2214.876,172.704C2214.876,198.133 2209.363,216.46 2198.337,227.685C2187.311,238.91 2169.183,244.522 2143.952,244.522C2136.8,244.522 2130.393,244.224 2124.731,243.628C2119.069,243.032 2114.152,242.138 2109.98,240.946L2109.98,208.166C2114.152,209.159 2118.622,209.855 2123.39,210.252C2128.158,210.649 2133.621,210.848 2139.78,210.848C2155.276,210.848 2165.706,208.017 2171.07,202.355C2176.434,196.693 2179.116,186.114 2179.116,170.618Z" style="fill:rgb(41,38,41);fill-rule:nonzero;"/>
        <path d="M2366.856,165.254L2366.856,54.994L2402.616,54.994L2402.616,165.254C2402.616,192.074 2396.259,211.99 2383.544,225.003C2370.829,238.016 2351.36,244.522 2325.136,244.522C2298.316,244.522 2278.747,238.264 2266.43,225.748C2254.113,213.232 2247.954,193.067 2247.954,165.254L2247.954,54.994L2283.714,54.994L2283.714,165.254C2283.714,182.737 2286.694,194.706 2292.654,201.163C2298.614,207.62 2309.441,210.848 2325.136,210.848C2341.029,210.848 2351.956,207.57 2357.916,201.014C2363.876,194.458 2366.856,182.538 2366.856,165.254Z" style="fill:rgb(41,38,41);fill-rule:nonzero;"/>
        <path d="M2468.474,241.84L2433.906,241.84L2433.906,94.628L2463.706,94.628L2465.196,109.528L2466.09,109.528C2473.043,103.369 2480.543,98.85 2488.589,95.969C2496.635,93.088 2506.121,91.648 2517.048,91.648C2533.339,91.648 2545.755,95.721 2554.298,103.866C2562.841,112.011 2567.112,124.031 2567.112,139.924L2567.112,241.84L2532.544,241.84L2532.544,144.394C2532.544,137.242 2530.21,131.828 2525.541,128.153C2520.872,124.478 2513.969,122.64 2504.83,122.64C2498.274,122.64 2491.917,123.484 2485.758,125.173C2479.599,126.862 2473.838,129.395 2468.474,132.772L2468.474,241.84Z" style="fill:rgb(41,38,41);fill-rule:nonzero;"/>
        <path d="M2634.46,73.768L2597.806,73.768L2597.806,43.67L2634.46,43.67L2634.46,73.768ZM2633.566,241.84L2598.998,241.84L2598.998,94.628L2633.566,94.628L2633.566,241.84Z" style="fill:rgb(41,38,41);fill-rule:nonzero;"/>
        <path d="M2758.13,209.656L2758.13,239.158C2754.753,240.549 2750.034,241.79 2743.975,242.883C2737.916,243.976 2732.403,244.522 2727.436,244.522C2708.563,244.522 2695.053,240.4 2686.908,232.155C2678.763,223.91 2674.69,210.153 2674.69,190.882L2674.69,123.534L2655.022,123.534L2655.022,94.628L2675.584,94.628L2680.352,59.464L2709.258,59.464L2709.258,94.628L2756.342,94.628L2756.342,123.534L2709.258,123.534L2709.258,189.69C2709.258,198.431 2711.145,204.391 2714.92,207.57C2718.695,210.749 2725.449,212.338 2735.184,212.338C2738.561,212.338 2742.535,212.09 2747.104,211.593C2751.673,211.096 2755.349,210.451 2758.13,209.656Z" style="fill:rgb(41,38,41);fill-rule:nonzero;"/>
    </g>
</svg>
