<?xml version="1.0" encoding="UTF-8" standalone="no"?>
<!DOCTYPE svg PUBLIC "-//W3C//DTD SVG 1.1//EN" "http://www.w3.org/Graphics/SVG/1.1/DTD/svg11.dtd">
<svg width="100%" height="100%" viewBox="0 0 2056 334" version="1.1" xmlns="http://www.w3.org/2000/svg" xmlns:xlink="http://www.w3.org/1999/xlink" xml:space="preserve" xmlns:serif="http://www.serif.com/" style="fill-rule:evenodd;clip-rule:evenodd;stroke-linejoin:round;stroke-miterlimit:2;">
    <g id="Artboard1" transform="matrix(1.01783,0,0,1,0.005089,0)">
        <rect x="-0.005" y="0" width="2019.039" height="333.523" style="fill:none;"/>
        <g transform="matrix(0.982482,0,0,1,0.977482,0)">
            <path d="M197.75,196.87L141.7,252.92L30.48,141.7L68.75,103.43L48.14,82.82L7.57,123.39C-2.53,133.49 -2.53,149.91 7.57,160.01L123.39,275.83C128.44,280.88 135.07,283.4 141.7,283.4C148.33,283.4 154.96,280.87 160.01,275.83L218.36,217.48L197.75,196.87Z" style="fill:rgb(216,68,69);fill-rule:nonzero;"/>
            <g>
                <path d="M203.1,50.66L160.01,7.57C149.92,-2.52 133.49,-2.52 123.39,7.57L65.79,65.17L86.4,85.78L141.71,30.47L182.5,71.27L203.11,50.66L203.1,50.66Z" style="fill:rgb(41,157,91);fill-rule:nonzero;"/>
                <path d="M252.25,99.82L231.64,120.43L252.91,141.7L215.38,179.22L235.99,199.83L275.81,160.01C280.7,155.12 283.39,148.62 283.39,141.7C283.39,134.78 280.7,128.28 275.81,123.39L252.24,99.82L252.25,99.82Z" style="fill:rgb(41,157,91);fill-rule:nonzero;"/>
            </g>
        </g>
        <g transform="matrix(0.982482,0,0,1,0.977482,0)">
            <path d="M141.7,175.91C137.97,175.91 134.24,174.49 131.4,171.64L92.12,132.36L112.73,111.75L141.71,140.73L241.68,40.76L262.29,61.37L152.01,171.65C149.16,174.5 145.44,175.92 141.71,175.92L141.7,175.91Z" style="fill:rgb(214,217,214);fill-rule:nonzero;"/>
        </g>
        <g transform="matrix(0.982482,0,0,1,-1686.091634,-0.318)">
            <path d="M2136.606,170.936L2136.606,55.312L2172.366,55.312L2172.366,173.022C2172.366,198.451 2166.853,216.778 2155.827,228.003C2144.801,239.228 2126.673,244.84 2101.442,244.84C2094.29,244.84 2087.883,244.542 2082.221,243.946C2076.559,243.35 2071.642,242.456 2067.47,241.264L2067.47,208.484C2071.642,209.477 2076.112,210.173 2080.88,210.57C2085.648,210.967 2091.111,211.166 2097.27,211.166C2112.766,211.166 2123.196,208.335 2128.56,202.673C2133.924,197.011 2136.606,186.432 2136.606,170.936Z" style="fill:rgb(214,217,214);fill-rule:nonzero;"/>
            <path d="M2324.346,165.572L2324.346,55.312L2360.106,55.312L2360.106,165.572C2360.106,192.392 2353.749,212.308 2341.034,225.321C2328.319,238.334 2308.85,244.84 2282.626,244.84C2255.806,244.84 2236.237,238.582 2223.92,226.066C2211.603,213.55 2205.444,193.385 2205.444,165.572L2205.444,55.312L2241.204,55.312L2241.204,165.572C2241.204,183.055 2244.184,195.024 2250.144,201.481C2256.104,207.938 2266.931,211.166 2282.626,211.166C2298.519,211.166 2309.446,207.888 2315.406,201.332C2321.366,194.776 2324.346,182.856 2324.346,165.572Z" style="fill:rgb(214,217,214);fill-rule:nonzero;"/>
            <path d="M2425.964,242.158L2391.396,242.158L2391.396,94.946L2421.196,94.946L2422.686,109.846L2423.58,109.846C2430.533,103.687 2438.033,99.168 2446.079,96.287C2454.125,93.406 2463.611,91.966 2474.538,91.966C2490.829,91.966 2503.245,96.039 2511.788,104.184C2520.331,112.329 2524.602,124.349 2524.602,140.242L2524.602,242.158L2490.034,242.158L2490.034,144.712C2490.034,137.56 2487.7,132.146 2483.031,128.471C2478.362,124.796 2471.459,122.958 2462.32,122.958C2455.764,122.958 2449.407,123.802 2443.248,125.491C2437.089,127.18 2431.328,129.713 2425.964,133.09L2425.964,242.158Z" style="fill:rgb(214,217,214);fill-rule:nonzero;"/>
            <path d="M2591.95,74.086L2555.296,74.086L2555.296,43.988L2591.95,43.988L2591.95,74.086ZM2591.056,242.158L2556.488,242.158L2556.488,94.946L2591.056,94.946L2591.056,242.158Z" style="fill:rgb(214,217,214);fill-rule:nonzero;"/>
            <path d="M2715.62,209.974L2715.62,239.476C2712.243,240.867 2707.524,242.108 2701.465,243.201C2695.406,244.294 2689.893,244.84 2684.926,244.84C2666.053,244.84 2652.543,240.718 2644.398,232.473C2636.253,224.228 2632.18,210.471 2632.18,191.2L2632.18,123.852L2612.512,123.852L2612.512,94.946L2633.074,94.946L2637.842,59.782L2666.748,59.782L2666.748,94.946L2713.832,94.946L2713.832,123.852L2666.748,123.852L2666.748,190.008C2666.748,198.749 2668.635,204.709 2672.41,207.888C2676.185,211.067 2682.939,212.656 2692.674,212.656C2696.051,212.656 2700.025,212.408 2704.594,211.911C2709.163,211.414 2712.839,210.769 2715.62,209.974Z" style="fill:rgb(214,217,214);fill-rule:nonzero;"/>
        </g>
        <g transform="matrix(0.692833,0,0,0.705187,1044.311159,187.021689)">
            <path d="M53.64,-72.414L53.64,0L17.88,0L17.88,-186.846L140.954,-186.846L140.954,-154.662L53.64,-154.662L53.64,-103.108L129.928,-103.108L129.928,-72.414L53.64,-72.414Z" style="fill:rgb(214,217,214);fill-rule:nonzero;"/>
            <path d="M194.296,0L159.728,0L159.728,-147.212L191.614,-147.212L193.104,-135.292L193.998,-135.292C201.349,-139.663 208.799,-143.04 216.348,-145.424C223.897,-147.808 231.248,-149 238.4,-149L242.423,-149C243.118,-149 243.665,-148.901 244.062,-148.702L244.062,-115.326C242.87,-115.723 241.33,-115.972 239.443,-116.071C237.556,-116.17 234.327,-116.22 229.758,-116.22C222.805,-116.22 216.348,-115.624 210.388,-114.432C204.428,-113.24 199.064,-111.551 194.296,-109.366L194.296,0Z" style="fill:rgb(214,217,214);fill-rule:nonzero;"/>
            <path d="M295.02,2.682C279.921,2.682 268.846,-1.043 261.793,-8.493C254.74,-15.943 251.214,-27.615 251.214,-43.508C251.214,-59.799 255.436,-71.321 263.879,-78.076C272.322,-84.831 286.875,-88.208 307.536,-88.208C313.297,-88.208 319.158,-87.91 325.118,-87.314C331.078,-86.718 336.243,-85.923 340.614,-84.93L340.614,-97.446C340.614,-105.194 338.23,-110.856 333.462,-114.432C328.694,-118.008 321.145,-119.796 310.814,-119.796C301.477,-119.796 293.182,-119.498 285.931,-118.902C278.68,-118.306 271.776,-117.313 265.22,-115.922L265.22,-144.828C272.769,-146.616 280.964,-147.957 289.805,-148.851C298.646,-149.745 309.125,-150.192 321.244,-150.192C339.323,-150.192 352.832,-146.07 361.772,-137.825C370.712,-129.58 375.182,-117.213 375.182,-100.724L375.182,0L343.296,0L341.806,-13.112L341.21,-13.112C334.853,-8.344 327.552,-4.52 319.307,-1.639C311.062,1.242 302.967,2.682 295.02,2.682ZM311.708,-63.474C300.98,-63.474 293.629,-62.232 289.656,-59.749C285.683,-57.266 283.696,-52.547 283.696,-45.594C283.696,-38.839 285.335,-34.022 288.613,-31.141C291.891,-28.26 297.503,-26.82 305.45,-26.82C311.211,-26.82 317.32,-27.664 323.777,-29.353C330.234,-31.042 335.846,-33.177 340.614,-35.76L340.614,-61.09C335.846,-61.885 331.128,-62.481 326.459,-62.878C321.79,-63.275 316.873,-63.474 311.708,-63.474Z" style="fill:rgb(214,217,214);fill-rule:nonzero;"/>
            <path d="M441.636,0L407.068,0L407.068,-147.212L438.954,-147.212L440.444,-136.186L441.338,-136.186C449.086,-140.954 456.486,-144.48 463.539,-146.765C470.592,-149.05 477.495,-150.192 484.25,-150.192C492.395,-150.192 499.398,-148.95 505.259,-146.467C511.12,-143.984 515.838,-140.159 519.414,-134.994L520.308,-134.994C527.659,-139.762 535.655,-143.487 544.297,-146.169C552.939,-148.851 561.432,-150.192 569.776,-150.192C584.08,-150.192 594.808,-146.318 601.96,-138.57C609.112,-130.822 612.688,-119.299 612.688,-104.002L612.688,0L578.12,0L578.12,-99.532C578.12,-106.287 576.282,-111.253 572.607,-114.432C568.932,-117.611 563.121,-119.2 555.174,-119.2C550.406,-119.2 545.539,-118.604 540.572,-117.412C535.605,-116.22 531.036,-114.631 526.864,-112.644C527.063,-111.651 527.162,-110.558 527.162,-109.366L527.162,0L492.594,0L492.594,-99.532C492.594,-106.287 490.756,-111.253 487.081,-114.432C483.406,-117.611 477.595,-119.2 469.648,-119.2C465.476,-119.2 461.056,-118.654 456.387,-117.561C451.718,-116.468 446.801,-114.73 441.636,-112.346L441.636,0Z" style="fill:rgb(214,217,214);fill-rule:nonzero;"/>
            <path d="M760.496,-36.058L760.496,-8.046C755.529,-5.066 747.732,-2.533 737.103,-0.447C726.474,1.639 715.399,2.682 703.876,2.682C680.433,2.682 663.596,-3.278 653.365,-15.198C643.134,-27.118 638.018,-46.786 638.018,-74.202C638.018,-100.625 643.382,-119.895 654.11,-132.014C664.838,-144.133 681.824,-150.192 705.068,-150.192C727.517,-150.192 743.411,-145.523 752.748,-136.186C762.085,-126.849 766.754,-110.856 766.754,-88.208C766.754,-84.036 766.655,-80.212 766.456,-76.735C766.257,-73.258 765.86,-68.441 765.264,-62.282L672.884,-62.282C673.083,-49.965 675.814,-41.323 681.079,-36.356C686.344,-31.389 695.731,-28.906 709.24,-28.906C718.18,-28.906 727.418,-29.601 736.954,-30.992C746.49,-32.383 754.337,-34.071 760.496,-36.058ZM705.068,-120.094C692.949,-120.094 684.556,-117.71 679.887,-112.942C675.218,-108.174 672.884,-99.532 672.884,-87.016L735.166,-87.016L735.166,-93.274C734.967,-103.406 732.683,-110.409 728.312,-114.283C723.941,-118.157 716.193,-120.094 705.068,-120.094Z" style="fill:rgb(214,217,214);fill-rule:nonzero;"/>
            <path d="M950.322,-147.212L988.168,-147.212L947.938,0L907.41,0L881.186,-99.532L857.644,0L817.712,0L777.482,-147.212L815.328,-147.212L838.274,-31.886L865.69,-147.212L898.768,-147.212L927.376,-31.886L950.322,-147.212Z" style="fill:rgb(214,217,214);fill-rule:nonzero;"/>
            <path d="M1139.552,-73.904C1139.552,-46.091 1134.238,-26.373 1123.609,-14.751C1112.98,-3.129 1094.852,2.682 1069.224,2.682C1043.199,2.682 1024.921,-3.03 1014.392,-14.453C1003.863,-25.876 998.598,-45.693 998.598,-73.904C998.598,-101.519 1003.962,-121.137 1014.69,-132.759C1025.418,-144.381 1043.596,-150.192 1069.224,-150.192C1095.051,-150.192 1113.229,-144.48 1123.758,-133.057C1134.287,-121.634 1139.552,-101.916 1139.552,-73.904ZM1033.166,-74.202C1033.166,-55.925 1035.451,-43.905 1040.02,-38.144C1044.589,-32.383 1054.324,-29.502 1069.224,-29.502C1083.727,-29.502 1093.312,-32.432 1097.981,-38.293C1102.65,-44.154 1104.984,-56.123 1104.984,-74.202C1104.984,-92.678 1102.749,-104.797 1098.279,-110.558C1093.809,-116.319 1084.124,-119.2 1069.224,-119.2C1054.523,-119.2 1044.838,-116.22 1040.169,-110.26C1035.5,-104.3 1033.166,-92.281 1033.166,-74.202Z" style="fill:rgb(214,217,214);fill-rule:nonzero;"/>
            <path d="M1200.642,0L1166.074,0L1166.074,-147.212L1197.96,-147.212L1199.45,-135.292L1200.344,-135.292C1207.695,-139.663 1215.145,-143.04 1222.694,-145.424C1230.243,-147.808 1237.594,-149 1244.746,-149L1248.769,-149C1249.464,-149 1250.011,-148.901 1250.408,-148.702L1250.408,-115.326C1249.216,-115.723 1247.676,-115.972 1245.789,-116.071C1243.902,-116.17 1240.673,-116.22 1236.104,-116.22C1229.151,-116.22 1222.694,-115.624 1216.734,-114.432C1210.774,-113.24 1205.41,-111.551 1200.642,-109.366L1200.642,0Z" style="fill:rgb(214,217,214);fill-rule:nonzero;"/>
            <path d="M1306.134,-60.494L1306.134,0L1271.566,0L1271.566,-198.17L1306.134,-198.17L1306.134,-88.506L1318.65,-88.506L1362.754,-147.212L1403.878,-147.212L1347.556,-75.99L1406.858,0L1364.244,0L1318.948,-60.494L1306.134,-60.494Z" style="fill:rgb(214,217,214);fill-rule:nonzero;"/>
        </g>
        <g transform="matrix(1.842534,-0.000849,0.000834,1.875386,-68.399807,-397.288892)">
            <path d="M636.281,327.8C639.233,325.033 642.092,322.105 644.859,319.015C647.626,315.925 650.024,312.305 652.053,308.155C651.13,308.524 649.77,309.584 647.971,311.337C646.173,313.089 644.305,315.141 642.368,317.493C640.432,319.845 638.564,322.266 636.765,324.756C634.967,327.247 633.653,329.322 632.823,330.982C635.036,331.351 637.457,331.581 640.086,331.674C642.714,331.766 645.32,331.766 647.902,331.674C650.485,331.581 652.975,331.397 655.373,331.12C657.771,330.844 659.938,330.567 661.875,330.29C662.429,330.198 662.913,330.29 663.328,330.567C663.743,330.844 663.996,331.535 664.089,332.642C664.181,333.288 663.996,333.703 663.535,333.887C663.074,334.072 662.613,334.164 662.152,334.164C659.201,333.979 656.434,333.933 653.851,334.026C651.269,334.118 648.778,334.441 646.38,334.994C646.657,337.945 646.288,340.666 645.274,343.156C644.259,345.647 643.106,347.814 641.815,349.659C638.864,353.901 635.613,357.752 632.062,361.211C628.511,364.669 624.66,367.69 620.51,370.272C619.772,370.641 619.011,370.964 618.227,371.241C617.443,371.517 616.59,371.794 615.668,372.071C614.008,372.347 612.67,371.863 611.656,370.618C610.641,369.373 610.272,367.736 610.549,365.707C610.733,364.969 610.941,364.231 611.171,363.493C611.402,362.755 611.702,362.018 612.071,361.28C614.192,356.853 616.336,352.403 618.504,347.929C620.671,343.456 622.585,339.467 624.245,335.962C623.415,335.962 622.723,335.686 622.17,335.132C621.617,334.579 621.294,333.956 621.202,333.265C621.109,332.573 621.317,331.95 621.824,331.397C622.331,330.844 623.138,330.521 624.245,330.429C625.075,330.336 625.721,330.313 626.182,330.359C626.643,330.406 627.058,330.406 627.427,330.359C627.796,330.313 628.119,330.152 628.395,329.875C628.672,329.598 629.041,329.091 629.502,328.353C632.177,323.926 634.967,319.96 637.872,316.456C640.777,312.951 643.982,309.446 647.487,305.941C647.948,305.48 648.433,305.019 648.94,304.558C649.447,304.097 649.977,303.682 650.531,303.313C650.9,303.036 651.223,302.806 651.499,302.621C651.776,302.437 652.099,302.252 652.468,302.068C653.574,301.699 654.566,301.952 655.442,302.829C656.318,303.705 656.664,304.881 656.48,306.356C656.295,307.279 656.111,308.155 655.926,308.985C655.742,309.815 655.419,310.599 654.958,311.337C652.929,314.749 650.738,317.908 648.386,320.814C646.035,323.719 643.383,326.232 640.432,328.353C639.878,328.815 639.279,329.114 638.633,329.253C637.987,329.391 637.204,328.907 636.281,327.8ZM642.783,335.132C641.584,335.409 640.247,335.524 638.771,335.478C637.296,335.432 635.866,335.386 634.483,335.34C633.099,335.294 631.854,335.34 630.747,335.478C629.641,335.617 628.857,336.009 628.395,336.654C628.027,337.115 627.565,337.853 627.012,338.868C626.459,339.882 625.905,340.966 625.352,342.119C624.798,343.272 624.291,344.355 623.83,345.37C623.369,346.384 623,347.168 622.723,347.722C621.432,350.581 620.141,353.44 618.85,356.299C617.558,359.158 616.221,362.018 614.838,364.877C614.653,365.153 614.561,365.499 614.561,365.914C614.561,366.329 614.515,366.675 614.423,366.952C614.423,367.136 614.561,367.367 614.838,367.644C615.483,367.367 616.152,367.136 616.844,366.952C617.535,366.767 618.204,366.537 618.85,366.26C623.277,363.493 627.312,360.173 630.955,356.299C634.598,352.426 637.941,348.091 640.985,343.295C641.354,342.557 641.746,341.358 642.161,339.698C642.576,338.038 642.783,336.516 642.783,335.132Z" style="fill:rgb(41,157,91);fill-rule:nonzero;"/>
            <path d="M678.892,332.227C679.998,332.043 681.059,331.881 682.074,331.743C683.088,331.605 684.103,331.443 685.117,331.259C685.855,331.074 686.777,330.936 687.884,330.844C688.991,330.751 689.959,330.613 690.789,330.429L691.827,330.429C692.058,330.429 692.404,330.521 692.865,330.705C693.141,330.89 693.395,331.143 693.626,331.466C693.856,331.789 693.925,332.135 693.833,332.504C693.833,332.688 693.649,332.919 693.28,333.195C692.911,333.472 692.634,333.611 692.45,333.611C691.527,333.795 690.674,333.956 689.89,334.095C689.106,334.233 688.253,334.348 687.331,334.441C685.578,334.81 683.849,335.109 682.143,335.34C680.437,335.57 678.753,335.87 677.093,336.239C676.079,336.424 675.249,336.885 674.603,337.623C672.666,339.467 671.075,340.989 669.83,342.188C668.585,343.387 667.086,344.263 665.334,344.817C664.043,345.185 662.844,345.255 661.737,345.024C660.63,344.793 659.8,344.171 659.247,343.156C658.693,342.142 658.601,340.735 658.97,338.937C659.339,337.138 660.353,334.902 662.014,332.227C663.213,330.382 664.619,328.699 666.233,327.177C667.847,325.656 669.576,324.157 671.421,322.681C672.159,322.128 672.943,321.644 673.773,321.229C674.603,320.814 675.571,320.56 676.678,320.468C678.246,320.283 679.445,320.537 680.275,321.229C681.105,321.92 681.474,323.05 681.382,324.618C681.382,325.356 681.244,326.117 680.967,326.901C680.69,327.685 680.46,328.492 680.275,329.322C680.091,329.783 679.883,330.221 679.653,330.636C679.422,331.051 679.168,331.581 678.892,332.227ZM665.611,332.919C664.043,334.856 663.259,336.493 663.259,337.83C663.259,339.167 663.697,340.044 664.573,340.459C665.449,340.874 666.51,340.781 667.755,340.182C669,339.582 670.084,338.314 671.006,336.377C669.53,336.377 668.331,336.124 667.409,335.617C666.487,335.109 665.887,334.21 665.611,332.919ZM677.37,323.788C674.142,324.803 671.744,326.693 670.176,329.46C669.991,329.829 669.899,330.198 669.899,330.567C669.899,330.936 670.13,331.305 670.591,331.674C671.144,332.227 671.905,332.458 672.874,332.365C673.842,332.273 674.511,331.858 674.88,331.12C675.433,330.382 675.917,329.552 676.332,328.63C676.747,327.708 677.093,326.832 677.37,326.002C677.554,325.817 677.601,325.54 677.508,325.171C677.416,324.803 677.37,324.341 677.37,323.788Z" style="fill:rgb(41,157,91);fill-rule:nonzero;"/>
            <path d="M714.862,336.654C713.755,336.562 712.879,336.285 712.233,335.824C711.587,335.363 711.057,334.763 710.642,334.026C710.227,333.288 709.904,332.504 709.674,331.674C709.443,330.844 709.236,330.014 709.051,329.183C708.498,327.892 707.714,327.247 706.699,327.247C705.685,327.247 704.647,327.546 703.586,328.146C702.526,328.745 701.534,329.506 700.612,330.429C699.69,331.351 698.952,332.043 698.398,332.504C695.17,335.178 692.68,338.176 690.928,341.496C690.651,342.234 690.213,342.834 689.614,343.295C689.014,343.756 688.438,344.056 687.884,344.194C687.331,344.332 686.847,344.263 686.432,343.986C686.017,343.71 685.809,343.156 685.809,342.326C685.809,341.865 685.901,341.496 686.086,341.22C686.27,340.943 686.455,340.62 686.639,340.251C688.391,337.115 690.098,333.979 691.758,330.844C693.418,327.708 695.124,324.572 696.877,321.436C697.338,320.514 697.937,319.684 698.675,318.946C698.86,318.761 699.113,318.623 699.436,318.531C699.759,318.439 700.013,318.485 700.197,318.669C700.843,319.038 701.073,319.545 700.889,320.191C700.889,320.837 700.704,321.621 700.335,322.543C699.69,323.742 699.09,324.941 698.537,326.14C697.983,327.339 697.476,328.584 697.015,329.875C697.753,329.322 698.214,328.953 698.398,328.768C699.321,328.031 700.174,327.316 700.958,326.624C701.742,325.932 702.549,325.31 703.379,324.756C704.486,323.834 705.731,323.281 707.114,323.096C709.881,322.451 711.68,323.465 712.51,326.14C712.694,326.878 712.833,327.569 712.925,328.215C713.017,328.861 713.155,329.506 713.34,330.152C713.524,331.166 713.847,331.835 714.308,332.158C714.769,332.481 715.553,332.596 716.66,332.504C717.121,332.504 717.606,332.481 718.113,332.435C718.62,332.388 719.104,332.365 719.565,332.365C720.857,332.273 721.733,332.458 722.194,332.919C722.655,333.38 722.701,333.91 722.332,334.51C721.963,335.109 721.156,335.64 719.911,336.101C718.666,336.562 716.983,336.746 714.862,336.654Z" style="fill:rgb(41,157,91);fill-rule:nonzero;"/>
            <path d="M816.408,390.056C816.408,388.672 816.592,387.45 816.961,386.389C817.33,385.329 817.837,384.291 818.483,383.277C820.512,379.772 822.541,376.244 824.57,372.693C826.599,369.142 828.72,365.615 830.934,362.11C833.885,357.406 836.86,352.771 839.857,348.206C842.855,343.641 845.875,339.006 848.919,334.302C849.103,333.933 849.334,333.564 849.611,333.195C849.887,332.827 850.164,332.319 850.441,331.674L847.674,331.674C845.276,331.766 842.878,331.904 840.48,332.089C838.082,332.273 835.684,332.365 833.286,332.365C831.349,332.458 829.596,333.103 828.029,334.302C823.878,338.176 819.682,341.934 815.439,345.577C811.196,349.221 806.954,352.887 802.711,356.576C801.973,357.222 801.166,357.821 800.29,358.374C799.414,358.928 798.561,359.435 797.731,359.896C797.454,360.081 797.177,360.127 796.901,360.035C796.624,359.942 796.255,359.896 795.794,359.896C795.978,359.62 796.071,359.297 796.071,358.928C796.071,358.559 796.163,358.282 796.347,358.098C797.085,357.36 797.777,356.714 798.423,356.161C799.068,355.608 799.76,355.008 800.498,354.362C804.095,351.134 807.692,347.929 811.289,344.747C814.886,341.565 818.529,338.407 822.218,335.271C822.679,334.994 823.071,334.625 823.394,334.164C823.717,333.703 824.155,333.195 824.708,332.642C823.694,332.734 822.818,332.804 822.08,332.85C821.342,332.896 820.604,332.919 819.866,332.919C812.949,333.288 806.147,333.611 799.46,333.887C792.773,334.164 785.971,334.487 779.054,334.856C775.734,335.04 772.367,335.271 768.955,335.547C765.542,335.824 762.176,336.055 758.856,336.239C757.749,336.331 756.55,336.239 755.259,335.962C755.074,335.778 754.89,335.547 754.705,335.271C754.521,334.994 754.336,334.717 754.152,334.441C754.06,334.256 754.152,334.049 754.429,333.818C754.705,333.587 754.936,333.38 755.12,333.195C755.581,333.011 756.273,332.827 757.195,332.642C765.496,331.996 773.797,331.443 782.098,330.982C786.248,330.613 790.306,330.313 794.272,330.083C798.238,329.852 802.296,329.598 806.447,329.322C809.859,329.137 813.249,328.999 816.615,328.907C819.981,328.815 823.417,328.722 826.922,328.63C828.674,328.63 830.196,327.984 831.487,326.693C839.327,319.499 847.097,312.397 854.798,305.388C862.5,298.378 870.27,291.277 878.11,284.083C880.231,281.961 882.329,279.909 884.405,277.926C886.48,275.943 888.578,273.891 890.699,271.77C891.16,271.401 891.529,271.078 891.806,270.802C892.083,270.525 892.452,270.294 892.913,270.11C893.189,270.018 893.581,269.994 894.089,270.041C894.596,270.087 894.988,270.202 895.265,270.386C895.449,270.571 895.611,270.894 895.749,271.355C895.887,271.816 895.91,272.277 895.818,272.738C895.726,273.199 895.518,273.638 895.195,274.053C894.873,274.468 894.573,274.906 894.296,275.367C888.947,283.114 883.644,290.792 878.386,298.402C873.129,306.011 867.826,313.735 862.477,321.574C861.923,322.312 861.37,323.165 860.817,324.134C860.263,325.102 859.618,326.094 858.88,327.108C861.278,327.385 863.63,327.639 865.935,327.869C868.241,328.1 870.593,328.722 872.991,329.737C872.253,329.921 871.608,330.06 871.054,330.152C870.501,330.244 869.947,330.336 869.394,330.429C867.457,330.613 865.497,330.797 863.514,330.982C861.531,331.166 859.571,331.351 857.635,331.535C856.343,331.535 855.421,331.996 854.868,332.919C849.887,340.943 844.884,348.852 839.857,356.645C834.831,364.439 829.827,372.393 824.847,380.51C824.109,381.524 823.417,382.562 822.771,383.623C822.126,384.683 821.434,385.721 820.696,386.735C820.235,387.473 819.659,388.119 818.967,388.672C818.275,389.226 817.422,389.687 816.408,390.056ZM836.191,327.523C836.191,327.616 836.283,327.754 836.468,327.938C838.866,327.846 841.264,327.754 843.662,327.662C846.06,327.569 848.458,327.523 850.856,327.523C852.516,327.523 853.899,326.785 855.006,325.31C858.234,320.329 861.508,315.441 864.829,310.645C868.149,305.849 871.423,301.007 874.651,296.119C875.758,294.551 876.842,293.006 877.902,291.484C878.963,289.962 880.001,288.418 881.015,286.85C881.015,286.757 880.923,286.711 880.738,286.711C873.36,293.444 865.958,300.2 858.534,306.979C851.109,313.758 843.662,320.606 836.191,327.523Z" style="fill:rgb(41,157,91);fill-rule:nonzero;"/>
            <path d="M896.925,341.635C899.323,340.712 902.09,339.444 905.226,337.83C908.361,336.216 911.128,334.763 913.526,333.472C915.002,332.827 916.178,332.527 917.054,332.573C917.93,332.619 918.461,332.85 918.645,333.265C918.83,333.68 918.668,334.233 918.161,334.925C917.654,335.617 916.708,336.285 915.325,336.931C912.466,338.222 909.583,339.49 906.678,340.735C903.773,341.98 900.845,343.203 897.893,344.402C895.864,345.232 893.973,345.324 892.221,344.678C890.561,343.848 889.915,342.28 890.284,339.974C890.469,339.052 890.745,338.245 891.114,337.553C891.483,336.862 891.76,336.101 891.944,335.271C892.313,334.256 892.659,333.334 892.982,332.504C893.305,331.674 893.443,331.005 893.397,330.498C893.351,329.99 893.028,329.691 892.429,329.598C891.829,329.506 890.791,329.691 889.316,330.152C887.748,330.982 886.203,331.835 884.681,332.711C883.159,333.587 881.661,334.487 880.185,335.409C878.802,336.424 877.441,337.438 876.104,338.453C874.766,339.467 873.36,340.482 871.884,341.496C871.7,341.681 871.492,341.888 871.262,342.119C871.031,342.349 870.731,342.557 870.362,342.741C869.901,342.926 869.417,343.11 868.91,343.295C868.403,343.479 867.872,343.295 867.319,342.741C866.858,342.28 866.65,341.796 866.696,341.289C866.742,340.781 866.95,340.297 867.319,339.836C868.057,338.729 868.771,337.623 869.463,336.516C870.155,335.409 870.87,334.302 871.608,333.195C872.53,331.996 873.406,330.797 874.236,329.598C875.066,328.399 875.896,327.154 876.726,325.863C877.187,325.31 877.51,324.756 877.695,324.203C879.263,322.266 880.416,321.667 881.153,322.405C881.983,322.958 881.707,324.295 880.323,326.417C879.678,327.431 879.078,328.423 878.525,329.391C877.971,330.359 877.326,331.305 876.588,332.227C876.311,332.596 875.804,333.195 875.066,334.026C874.328,334.856 873.683,335.617 873.129,336.308C872.576,337 872.276,337.438 872.23,337.623C872.184,337.807 872.714,337.392 873.821,336.377C875.85,334.717 877.994,333.126 880.254,331.605C882.514,330.083 884.796,328.768 887.102,327.662C888.025,327.201 889.062,326.762 890.215,326.347C891.368,325.932 892.429,325.748 893.397,325.794C894.365,325.84 895.195,326.186 895.887,326.832C896.579,327.477 897.017,328.538 897.202,330.014C897.386,331.489 897.109,332.85 896.371,334.095C895.634,335.34 894.942,336.654 894.296,338.038C893.651,339.79 893.466,341.012 893.743,341.704C894.02,342.395 895.08,342.372 896.925,341.635Z" style="fill:rgb(41,157,91);fill-rule:nonzero;"/>
            <path d="M925.147,356.576C926.07,356.115 926.831,355.792 927.43,355.608C928.03,355.423 928.514,355.1 928.883,354.639C930.727,353.256 932.572,351.826 934.417,350.35C936.261,348.875 938.06,347.353 939.812,345.785C941.841,343.94 944.009,342.027 946.314,340.044C948.62,338.061 950.741,336.101 952.678,334.164C953.693,333.242 954.592,332.619 955.376,332.296C956.16,331.973 956.713,331.95 957.036,332.227C957.359,332.504 957.359,333.011 957.036,333.749C956.713,334.487 955.998,335.409 954.892,336.516C951.11,340.389 947.306,344.148 943.478,347.791C939.651,351.434 935.523,354.777 931.096,357.821C930.451,358.282 929.782,358.697 929.09,359.066C928.398,359.435 927.684,359.712 926.946,359.896C925.378,360.45 924.018,360.311 922.865,359.481C921.712,358.651 921.274,357.406 921.55,355.746C921.735,354.639 921.965,353.555 922.242,352.495C922.519,351.434 922.888,350.396 923.349,349.382C924.64,346.615 925.977,343.802 927.361,340.943C928.744,338.084 930.128,335.271 931.511,332.504C931.696,332.135 931.834,331.812 931.926,331.535C932.019,331.259 932.065,330.89 932.065,330.429C931.604,330.797 931.212,331.12 930.889,331.397C930.566,331.674 930.22,331.95 929.851,332.227C926.808,334.717 923.81,337.023 920.859,339.144C920.397,339.329 919.89,339.536 919.337,339.767C918.783,339.997 918.23,340.159 917.677,340.251C916.478,340.436 915.509,340.205 914.771,339.559C914.034,338.914 913.711,338.038 913.803,336.931C913.895,336.285 914.08,335.64 914.356,334.994C914.633,334.348 914.91,333.703 915.186,333.057C916.478,331.397 917.976,329.99 919.683,328.838C921.389,327.685 923.257,326.739 925.286,326.002C926.761,325.356 928.145,325.033 929.436,325.033C930.543,324.849 931.534,324.503 932.411,323.995C933.287,323.488 934.094,322.866 934.832,322.128C937.691,318.9 940.296,315.556 942.648,312.098C945,308.639 947.375,305.111 949.773,301.514C949.957,301.238 950.142,300.915 950.326,300.546C950.511,300.177 950.741,299.854 951.018,299.577C952.402,297.825 953.601,297.226 954.615,297.779C955.814,298.425 955.814,299.854 954.615,302.068C953.969,302.898 953.347,303.774 952.747,304.696C952.148,305.619 951.618,306.495 951.156,307.325C947.006,313.689 943.063,320.03 939.328,326.347C935.592,332.665 932.111,339.144 928.883,345.785C928.053,347.353 927.315,348.967 926.669,350.627C926.024,352.287 925.516,354.27 925.147,356.576ZM918.368,335.824C922.058,334.348 924.594,332.412 925.977,330.014C924.41,330.475 922.934,331.189 921.55,332.158C920.167,333.126 919.106,334.348 918.368,335.824Z" style="fill:rgb(41,157,91);fill-rule:nonzero;"/>
            <path d="M978.826,336.654C977.719,336.562 976.843,336.285 976.197,335.824C975.551,335.363 975.021,334.763 974.606,334.026C974.191,333.288 973.868,332.504 973.638,331.674C973.407,330.844 973.199,330.014 973.015,329.183C972.462,327.892 971.678,327.247 970.663,327.247C969.649,327.247 968.611,327.546 967.55,328.146C966.49,328.745 965.498,329.506 964.576,330.429C963.654,331.351 962.916,332.043 962.362,332.504C959.134,335.178 956.644,338.176 954.892,341.496C954.615,342.234 954.177,342.834 953.577,343.295C952.978,343.756 952.402,344.056 951.848,344.194C951.295,344.332 950.811,344.263 950.395,343.986C949.98,343.71 949.773,343.156 949.773,342.326C949.773,341.865 949.865,341.496 950.05,341.22C950.234,340.943 950.419,340.62 950.603,340.251C952.355,337.115 954.062,333.979 955.722,330.844C957.382,327.708 959.088,324.572 960.841,321.436C961.302,320.514 961.901,319.684 962.639,318.946C962.824,318.761 963.077,318.623 963.4,318.531C963.723,318.439 963.976,318.485 964.161,318.669C964.807,319.038 965.037,319.545 964.853,320.191C964.853,320.837 964.668,321.621 964.299,322.543C963.654,323.742 963.054,324.941 962.501,326.14C961.947,327.339 961.44,328.584 960.979,329.875C961.717,329.322 962.178,328.953 962.362,328.768C963.285,328.031 964.138,327.316 964.922,326.624C965.706,325.932 966.513,325.31 967.343,324.756C968.45,323.834 969.695,323.281 971.078,323.096C973.845,322.451 975.644,323.465 976.474,326.14C976.658,326.878 976.796,327.569 976.889,328.215C976.981,328.861 977.119,329.506 977.304,330.152C977.488,331.166 977.811,331.835 978.272,332.158C978.733,332.481 979.517,332.596 980.624,332.504C981.085,332.504 981.569,332.481 982.077,332.435C982.584,332.388 983.068,332.365 983.529,332.365C984.821,332.273 985.697,332.458 986.158,332.919C986.619,333.38 986.665,333.91 986.296,334.51C985.927,335.109 985.12,335.64 983.875,336.101C982.63,336.562 980.947,336.746 978.826,336.654Z" style="fill:rgb(41,157,91);fill-rule:nonzero;"/>
            <path d="M1001.376,332.227C1002.483,332.043 1003.543,331.881 1004.558,331.743C1005.572,331.605 1006.587,331.443 1007.602,331.259C1008.339,331.074 1009.262,330.936 1010.368,330.844C1011.475,330.751 1012.444,330.613 1013.274,330.429L1014.311,330.429C1014.542,330.429 1014.888,330.521 1015.349,330.705C1015.626,330.89 1015.879,331.143 1016.11,331.466C1016.34,331.789 1016.41,332.135 1016.317,332.504C1016.317,332.688 1016.133,332.919 1015.764,333.195C1015.395,333.472 1015.118,333.611 1014.934,333.611C1014.012,333.795 1013.158,333.956 1012.374,334.095C1011.59,334.233 1010.737,334.348 1009.815,334.441C1008.063,334.81 1006.333,335.109 1004.627,335.34C1002.921,335.57 1001.238,335.87 999.577,336.239C998.563,336.424 997.733,336.885 997.087,337.623C995.15,339.467 993.559,340.989 992.314,342.188C991.069,343.387 989.57,344.263 987.818,344.817C986.527,345.185 985.328,345.255 984.221,345.024C983.114,344.793 982.284,344.171 981.731,343.156C981.177,342.142 981.085,340.735 981.454,338.937C981.823,337.138 982.838,334.902 984.498,332.227C985.697,330.382 987.103,328.699 988.717,327.177C990.331,325.656 992.061,324.157 993.905,322.681C994.643,322.128 995.427,321.644 996.257,321.229C997.087,320.814 998.056,320.56 999.162,320.468C1000.73,320.283 1001.929,320.537 1002.759,321.229C1003.589,321.92 1003.958,323.05 1003.866,324.618C1003.866,325.356 1003.728,326.117 1003.451,326.901C1003.174,327.685 1002.944,328.492 1002.759,329.322C1002.575,329.783 1002.367,330.221 1002.137,330.636C1001.906,331.051 1001.653,331.581 1001.376,332.227ZM988.095,332.919C986.527,334.856 985.743,336.493 985.743,337.83C985.743,339.167 986.181,340.044 987.057,340.459C987.933,340.874 988.994,340.781 990.239,340.182C991.484,339.582 992.568,338.314 993.49,336.377C992.015,336.377 990.816,336.124 989.893,335.617C988.971,335.109 988.371,334.21 988.095,332.919ZM999.854,323.788C996.626,324.803 994.228,326.693 992.66,329.46C992.476,329.829 992.383,330.198 992.383,330.567C992.383,330.936 992.614,331.305 993.075,331.674C993.629,332.227 994.389,332.458 995.358,332.365C996.326,332.273 996.995,331.858 997.364,331.12C997.917,330.382 998.402,329.552 998.817,328.63C999.232,327.708 999.577,326.832 999.854,326.002C1000.039,325.817 1000.085,325.54 999.992,325.171C999.9,324.803 999.854,324.341 999.854,323.788Z" style="fill:rgb(41,157,91);fill-rule:nonzero;"/>
            <path d="M1033.057,335.547C1031.028,336.654 1028.976,337.715 1026.901,338.729C1024.826,339.744 1022.635,340.528 1020.329,341.081C1019.591,341.173 1018.854,341.243 1018.116,341.289C1017.378,341.335 1016.64,341.266 1015.902,341.081C1014.611,340.897 1013.666,340.297 1013.066,339.283C1012.467,338.268 1012.259,337.161 1012.444,335.962C1012.444,335.225 1012.513,334.441 1012.651,333.611C1012.789,332.78 1013.089,332.043 1013.55,331.397C1014.565,329.737 1015.51,327.892 1016.386,325.863C1017.263,323.834 1018.3,322.036 1019.499,320.468C1019.96,319.914 1020.514,319.615 1021.159,319.568C1021.805,319.522 1022.381,319.707 1022.889,320.122C1023.396,320.537 1023.696,321.136 1023.788,321.92C1023.88,322.704 1023.557,323.557 1022.82,324.48C1021.897,325.955 1020.975,327.385 1020.053,328.768C1019.13,330.152 1018.208,331.628 1017.286,333.195C1016.363,335.132 1015.971,336.539 1016.11,337.415C1016.248,338.291 1016.709,338.822 1017.493,339.006C1018.277,339.19 1019.269,339.098 1020.468,338.729C1021.667,338.36 1022.889,337.853 1024.134,337.208C1025.379,336.562 1026.555,335.893 1027.662,335.202C1028.768,334.51 1029.552,333.887 1030.014,333.334C1030.936,332.319 1031.766,331.789 1032.504,331.743C1033.242,331.697 1033.772,331.881 1034.095,332.296C1034.418,332.711 1034.533,333.265 1034.441,333.956C1034.348,334.648 1033.887,335.178 1033.057,335.547ZM1029.737,309.4C1030.475,309.4 1031.051,309.631 1031.466,310.092C1031.881,310.553 1031.996,311.106 1031.812,311.752C1031.628,312.49 1031.12,313.274 1030.29,314.104C1029.46,314.934 1028.584,315.626 1027.662,316.179C1026.37,316.917 1025.471,317.193 1024.964,317.009C1024.457,316.825 1024.387,315.856 1024.756,314.104C1024.941,312.997 1025.425,311.936 1026.209,310.922C1026.993,309.907 1028.169,309.4 1029.737,309.4Z" style="fill:rgb(41,157,91);fill-rule:nonzero;"/>
            <path d="M1041.358,356.576C1042.28,356.115 1043.041,355.792 1043.641,355.608C1044.24,355.423 1044.724,355.1 1045.093,354.639C1046.938,353.256 1048.782,351.826 1050.627,350.35C1052.472,348.875 1054.27,347.353 1056.023,345.785C1058.052,343.94 1060.219,342.027 1062.525,340.044C1064.831,338.061 1066.952,336.101 1068.889,334.164C1069.903,333.242 1070.803,332.619 1071.586,332.296C1072.37,331.973 1072.924,331.95 1073.247,332.227C1073.569,332.504 1073.569,333.011 1073.247,333.749C1072.924,334.487 1072.209,335.409 1071.102,336.516C1067.321,340.389 1063.516,344.148 1059.689,347.791C1055.861,351.434 1051.734,354.777 1047.307,357.821C1046.661,358.282 1045.992,358.697 1045.301,359.066C1044.609,359.435 1043.894,359.712 1043.156,359.896C1041.588,360.45 1040.228,360.311 1039.075,359.481C1037.922,358.651 1037.484,357.406 1037.761,355.746C1037.945,354.639 1038.176,353.555 1038.453,352.495C1038.729,351.434 1039.098,350.396 1039.559,349.382C1040.851,346.615 1042.188,343.802 1043.571,340.943C1044.955,338.084 1046.338,335.271 1047.722,332.504C1047.906,332.135 1048.045,331.812 1048.137,331.535C1048.229,331.259 1048.275,330.89 1048.275,330.429C1047.814,330.797 1047.422,331.12 1047.099,331.397C1046.776,331.674 1046.431,331.95 1046.062,332.227C1043.018,334.717 1040.021,337.023 1037.069,339.144C1036.608,339.329 1036.101,339.536 1035.547,339.767C1034.994,339.997 1034.441,340.159 1033.887,340.251C1032.688,340.436 1031.72,340.205 1030.982,339.559C1030.244,338.914 1029.921,338.038 1030.014,336.931C1030.106,336.285 1030.29,335.64 1030.567,334.994C1030.844,334.348 1031.12,333.703 1031.397,333.057C1032.688,331.397 1034.187,329.99 1035.893,328.838C1037.599,327.685 1039.467,326.739 1041.496,326.002C1042.972,325.356 1044.355,325.033 1045.647,325.033C1046.753,324.849 1047.745,324.503 1048.621,323.995C1049.497,323.488 1050.304,322.866 1051.042,322.128C1053.901,318.9 1056.507,315.556 1058.859,312.098C1061.211,308.639 1063.585,305.111 1065.983,301.514C1066.168,301.238 1066.352,300.915 1066.537,300.546C1066.721,300.177 1066.952,299.854 1067.229,299.577C1068.612,297.825 1069.811,297.226 1070.826,297.779C1072.025,298.425 1072.025,299.854 1070.826,302.068C1070.18,302.898 1069.557,303.774 1068.958,304.696C1068.358,305.619 1067.828,306.495 1067.367,307.325C1063.217,313.689 1059.274,320.03 1055.538,326.347C1051.803,332.665 1048.321,339.144 1045.093,345.785C1044.263,347.353 1043.525,348.967 1042.88,350.627C1042.234,352.287 1041.727,354.27 1041.358,356.576ZM1034.579,335.824C1038.268,334.348 1040.805,332.412 1042.188,330.014C1040.62,330.475 1039.144,331.189 1037.761,332.158C1036.377,333.126 1035.317,334.348 1034.579,335.824Z" style="fill:rgb(41,157,91);fill-rule:nonzero;"/>
        </g>
    </g>
</svg>
